<?xml version="1.0" encoding="utf-8"?>
<!-- Generator: Adobe Illustrator 25.3.1, SVG Export Plug-In . SVG Version: 6.00 Build 0)  -->
<svg version="1.1" id="shapes" xmlns="http://www.w3.org/2000/svg" xmlns:xlink="http://www.w3.org/1999/xlink" x="0px" y="0px"
	 viewBox="0 0 576 576" style="enable-background:new 0 0 576 576;" xml:space="preserve">
<style type="text/css">
	.st0{fill:#FAF2E5;}
	.st1{fill:#E8BF66;stroke:#000000;stroke-width:1.3114;stroke-miterlimit:10;}
	.st2{fill:#EADB21;stroke:#000000;stroke-width:1.3114;stroke-miterlimit:10;}
	.st3{fill:#FFFFFF;stroke:#000000;stroke-width:1.3114;stroke-miterlimit:10;}
	.st4{fill:#DC1F26;stroke:#000000;stroke-width:1.3114;stroke-miterlimit:10;}
	.st5{fill:#DC1F26;stroke:#000000;stroke-width:0.7925;stroke-miterlimit:10;}
</style>
<rect x="0.28" y="0.22" class="st0" width="575.27" height="575.63"/>
<g>
	<path class="st1" d="M511.22,235.4C563.66,171.2,324.2-20.1,267.63,48.78l243.46,186.71L511.22,235.4z"/>
	<path class="st2" d="M267.63,48.78c-0.8,0.97-1.57,1.99-2.29,3.06L108.06,491.1l403.03-255.61L267.63,48.78z"/>
	<line class="st3" x1="267.4" y1="49.1" x2="511.22" y2="235.4"/>
	<g id="pepperoni">
		<path class="st4" d="M189.65,409.32c-22.7,6.18-36.45,28.35-30.89,49.65l68.05-43.24C216.71,408.44,203.11,405.65,189.65,409.32z"
			/>
		<path class="st4" d="M281.93,228.94c20.61-27.44,16.45-65.36-9.29-84.69c-10.56-7.93-23.12-11.49-35.67-11.05l-39.39,110.08
			c0.15,0.12,0.29,0.24,0.44,0.35C223.75,262.96,261.33,256.39,281.93,228.94z"/>
		<path class="st4" d="M424.84,240.09c-18.93,4.98-30.52,23.34-25.87,41.01c1.91,7.25,6.25,13.26,12.02,17.48l56.62-35.19
			c-0.03-0.1-0.05-0.21-0.07-0.31C462.89,245.4,443.77,235.11,424.84,240.09z"/>
		<circle class="st4" cx="261.11" cy="321.16" r="31.81"/>
		<path class="st5" d="M326.68,94.78c-1.61,1.13-3.08,2.53-4.33,4.19c-6.38,8.49-4.66,20.54,3.83,26.92
			c8.49,6.38,20.54,4.66,26.92-3.83c1.25-1.66,2.18-3.46,2.81-5.33L326.68,94.78z"/>
	</g>
</g>
</svg>
